<?xml version="1.0" encoding="UTF-8"?><svg id="Layer_1" xmlns="http://www.w3.org/2000/svg" width="1.73in" height="2in" viewBox="0 0 124.56 144"><polygon points=".5 107.7 .5 36.3 62.28 .6 123.96 36.3 124.06 107.7 62.28 143.4 .5 107.7" style="fill:#f9f9fd;"/><path d="M62.28,1.1l61.28,35.4v70.8l-61.18,35.4L1,107.4V36.6L62.28,1.1M62.28,0L0,36v72l62.28,36,62.28-36V36L62.28,0h0Z" style="fill:#0a151d;"/><path d="M62.28,6.4l56.68,32.8v65.6l-56.68,32.8L5.6,104.8V39.2L62.28,6.4M62.28,4.1L3.6,38.1v67.9l58.68,33.9,58.68-33.9V38.1L62.28,4.1h0Z" style="fill:#0a151d;"/><g style="isolation:isolate;"><g style="isolation:isolate;"><path d="M11.6,93.3l4.1-1.4c.4-.2.7-.4,1-.6.2-.2.3-.6.3-1.1v-41.1c0-.5-.1-.9-.4-1.2s-.6-.5-1-.7l-4.3-2v-2.5l12.5-.6v21.5c1.4-1.8,2.7-3.2,4-4.1,1.4-.9,2.6-1.5,3.8-1.7,1.2-.3,2.5-.4,3.7-.4,2.2,0,4.1.4,5.8,1.3,1.8.9,3.1,2.2,4.2,4.1,1,1.8,1.6,4.2,1.6,7.2v19.9c0,.6.1,1,.4,1.2.2.3.5.5.9.6l3.7,1.4v2.5h-16.49v-2.5l3.4-1.4c.4,0,.7-.3.9-.6.2-.3.4-.7.4-1.2v-16.9c0-2.2-.2-4-.6-5.6-.4-1.5-1.1-2.7-2.3-3.5-1.1-.8-2.8-1.2-5-1.2s-3,.2-4.7.7c-1.6.5-2.9,1.4-4,2.8v23.8c0,.5.1.8.3,1.1.2.2.5.4.9.6l3.1,1.4v2.5H11.4v-2.5s.2.2.2.2Z" style="fill:#0a151d;"/></g><g style="isolation:isolate;"><path d="M50.48,102.7l.2-5.4h1.1c.4.3,1,.7,1.9,1.2s1.7,1,2.7,1.5,2.1.9,3.1,1.3c1.1.3,2.2.5,3.3.5,2.4,0,4.3-.7,5.4-2.1,1.2-1.4,1.9-3.3,1.9-5.7s-.2-2.7-.7-3.9c-.5-1.1-1.4-2-2.6-2.7s-2.8-1-4.9-1h-3.4v-3.6h2.9c2.4,0,4.3-.6,5.5-1.8s1.9-3,1.9-5.5-.3-3.3-1-4.5-2.2-1.8-4.3-1.8-1.9.2-2.8.5-1.9.7-2.8,1.2-1.7.9-2.4,1.4-1.4.9-1.8,1.2h-1.1l-.2-5.1c.8-.3,2-.8,3.5-1.3,1.6-.6,3.6-.9,6-.9s4.2.3,6,1,3.3,1.6,4.5,2.9c1.1,1.3,1.7,2.8,1.7,4.7s-.2,2.2-.7,3.4-1.4,2.3-2.5,3.4-2.9,1.9-5.1,2.5v.3c1,0,2.1.4,3.2.7,1.1.4,2.2.9,3.1,1.6s1.8,1.6,2.3,2.8.9,2.6.9,4.2-.4,3.4-1.2,4.8c-.8,1.4-2,2.6-3.4,3.5-1.5,1-3,1.7-4.7,2.2s-3.4.8-5.1.8-3.2,0-4.6-.4c-1.4-.3-2.5-.6-3.5-1-.9-.4-1.8-.7-2.4-.9h.1,0Z" style="fill:#0a151d;"/></g><g style="isolation:isolate;"><path d="M95.37,96.7c-3.5,0-6.6-.8-9.2-2.4-2.6-1.6-4.7-3.8-6.1-6.7s-2.2-6.4-2.2-10.4.7-7.1,2.2-10c1.5-3,3.5-5.3,6.1-7,2.7-1.7,5.8-2.6,9.5-2.6s7.3.9,9.9,2.7,4.5,4.2,5.8,7.2c1.2,3,1.9,6.2,1.9,9.6s-.7,7-2.2,9.9c-1.5,3-3.5,5.3-6.1,7.1-2.7,1.7-5.8,2.6-9.6,2.6h0ZM95.87,93c2,0,3.5-.5,4.9-1.4s2.3-2.1,3-3.6,1.2-3.1,1.6-4.9.5-3.5.5-5.2c0-2.7-.3-5.4-1-7.9s-1.8-4.6-3.3-6.2c-1.6-1.6-3.6-2.4-6.2-2.4s-3.5.5-4.8,1.4-2.3,2.1-3,3.6-1.2,3.1-1.7,4.9c-.3,1.8-.5,3.5-.5,5.1s.2,3.8.5,5.7c.3,1.9.9,3.7,1.8,5.4.8,1.6,1.9,3,3.2,4,1.4,1,3,1.5,5.1,1.5h-.1Z" style="fill:#f05123;"/></g></g></svg>